<svg width="16" height="16" viewBox="0 0 16 16" fill="none" xmlns="http://www.w3.org/2000/svg">
<path fill-rule="evenodd" clip-rule="evenodd" d="M3.63873 1.84461C3.63873 1.84461 4.07181 1.07068 5.08234 1.07068C5.87632 1.07068 6.05677 0.661654 6.05677 0.661654C6.05677 0.661654 6.40564 0 8.15803 0C9.76204 0 10.8447 0.533333 11.7189 1.25113C11.7189 1.25113 9.36103 -0.212531 7.03522 1.84461H3.63873ZM2.02269 6.69674C1.26078 5.63409 1.84224 4.81203 1.84224 4.81203C1.84224 4.81203 1.97056 5.33734 2.95301 5.33734C3.93547 5.33734 4.11592 4.38697 3.13346 4.38697H2.58409C2.11091 4.38697 1.82219 4.63559 1.82219 4.63559C1.82219 4.63559 1.75402 4.46717 1.57356 3.97393C1.39311 3.4807 1.58559 3.29223 1.71392 3.22005C1.84224 3.14787 2.12294 3.09975 2.12294 3.09975V2.86717C1.89437 2.88722 1.66178 3.02757 1.66178 3.02757C1.68184 2.16541 2.70439 2.16541 2.70439 2.16541H4.0678C4.0678 2.65464 4.88986 2.5985 4.88986 2.16541H7.31592C7.79712 2.16541 8.13798 2.40602 7.81717 3.00752C7.49637 3.60902 6.53397 3.50877 6.53397 3.50877C7.17557 4.85213 6.15301 6.15539 4.7896 6.15539H3.346C2.14299 6.15539 2.02269 6.69674 2.02269 6.69674ZM7.53246 3.62506C7.29186 3.83759 6.96304 3.81754 6.96304 3.81754C7.50439 5.62206 4.81767 6.97744 4.81767 6.96942C0.743489 9.2391 1.64975 12.0862 3.13346 13.9469C4.16003 15.2341 5.50339 15.992 5.50339 15.992C5.17056 14.9013 5.75201 14.3398 5.75201 14.3398C5.75201 14.3398 3.25778 12.1343 6.48183 8.72581C9.7059 5.31729 7.53246 3.62506 7.53246 3.62506ZM7.48835 1.88471C11.5144 1.73634 13.3831 4.33083 13.4513 6.74887C13.5595 8.55338 12.6212 9.89273 12.6212 9.89273C18.2352 5.98697 11.4182 -1.44361 7.48835 1.88471ZM8.08986 2.15338C12.9941 2.00501 14.7465 7.88772 11.5786 10.5343L8.39863 12.0702C8.39863 12.0702 7.98559 10.7348 9.52143 9.17093C11.0573 7.60702 12.541 4.6797 8.29036 2.75489C8.29036 2.75489 8.37056 2.35388 8.08986 2.15338ZM8.15803 3.06366C8.07783 3.24812 7.83722 3.47669 7.83722 3.47669C7.83722 3.47669 10.0548 5.46566 6.84675 8.74185C3.57858 12.0782 5.93647 14.0872 5.93647 14.0872C6.49788 13.205 8.12996 12.1905 8.12996 12.1905C8.12996 12.1905 7.71692 10.7068 9.05226 9.33133C11.2337 7.16591 11.8071 4.58747 8.15803 3.06366Z" fill="#D0021B"/>
</svg>
